<svg xmlns="http://www.w3.org/2000/svg" xmlns:xlink="http://www.w3.org/1999/xlink" width="80" zoomAndPan="magnify" viewBox="0 0 60 74.999997" height="100" preserveAspectRatio="xMidYMid meet" version="1.2"><defs><clipPath id="76778b176d"><path d="M 12.28125 0 L 52 0 L 52 75 L 12.28125 75 Z M 12.28125 0 "/></clipPath></defs><g id="24305302d5"><path style=" stroke:none;fill-rule:nonzero;fill:#ffbd25;fill-opacity:1;" d="M 33.824219 73.851562 L 34.355469 73.945312 C 34.703125 73.757812 34.246094 73.863281 33.824219 73.851562 Z M 33.824219 73.851562 "/><path style=" stroke:none;fill-rule:nonzero;fill:#ffbd25;fill-opacity:1;" d="M 33.824219 73.851562 L 33.449219 73.785156 C 33.570312 73.832031 33.695312 73.851562 33.824219 73.851562 Z M 33.824219 73.851562 "/><path style=" stroke:none;fill-rule:nonzero;fill:#ffbd25;fill-opacity:1;" d="M 45.457031 18.4375 C 45.417969 18.445312 45.390625 18.46875 45.367188 18.503906 L 45.390625 18.515625 L 45.550781 18.472656 Z M 45.457031 18.4375 "/><path style=" stroke:none;fill-rule:nonzero;fill:#ffbd25;fill-opacity:1;" d="M 19.238281 53.835938 C 19.117188 53.617188 19 53.40625 18.898438 53.21875 C 18.984375 53.4375 19.097656 53.644531 19.238281 53.835938 Z M 19.238281 53.835938 "/><path style=" stroke:none;fill-rule:nonzero;fill:#ffbd25;fill-opacity:1;" d="M 37.71875 45.179688 L 37.792969 45.148438 C 37.785156 45.097656 37.738281 45.140625 37.71875 45.179688 Z M 37.71875 45.179688 "/><path style=" stroke:none;fill-rule:nonzero;fill:#ffbd25;fill-opacity:1;" d="M 17.214844 23.359375 C 17.097656 23.589844 16.960938 23.808594 16.800781 24.011719 C 16.800781 24.355469 16.933594 24.054688 17.046875 23.789062 C 17.164062 23.519531 17.277344 23.289062 17.183594 23.753906 C 17.285156 23.539062 17.367188 23.316406 17.425781 23.082031 L 17.019531 23.335938 C 16.859375 23.882812 17.261719 23.035156 17.214844 23.359375 Z M 17.214844 23.359375 "/><path style=" stroke:none;fill-rule:nonzero;fill:#ffbd25;fill-opacity:1;" d="M 48.296875 20.507812 C 48.28125 20.472656 48.265625 20.441406 48.242188 20.414062 C 48.203125 20.542969 48.152344 20.523438 48.324219 20.851562 C 48.488281 20.925781 48.554688 20.835938 48.644531 20.757812 C 48.730469 20.683594 48.839844 20.621094 49.085938 20.867188 C 49.011719 20.761719 48.921875 20.589844 48.832031 20.429688 C 48.855469 20.746094 48.570312 20.605469 48.296875 20.507812 Z M 48.296875 20.507812 "/><path style=" stroke:none;fill-rule:nonzero;fill:#ffbd25;fill-opacity:1;" d="M 48.832031 20.40625 C 48.835938 20.367188 48.832031 20.324219 48.824219 20.285156 C 48.761719 20.214844 48.710938 20.136719 48.664062 20.054688 C 48.703125 20.1875 48.761719 20.3125 48.832031 20.429688 C 48.832031 20.421875 48.832031 20.414062 48.832031 20.40625 Z M 48.832031 20.40625 "/><path style=" stroke:none;fill-rule:nonzero;fill:#ffbd25;fill-opacity:1;" d="M 15.574219 32.550781 C 15.597656 32.65625 15.621094 32.753906 15.640625 32.839844 C 15.652344 32.734375 15.632812 32.636719 15.574219 32.550781 Z M 15.574219 32.550781 "/><path style=" stroke:none;fill-rule:nonzero;fill:#ffbd25;fill-opacity:1;" d="M 22.589844 53.117188 C 22.683594 53.222656 22.777344 53.324219 22.859375 53.402344 C 22.789062 53.289062 22.699219 53.191406 22.589844 53.117188 Z M 22.589844 53.117188 "/><path style=" stroke:none;fill-rule:nonzero;fill:#ffbd25;fill-opacity:1;" d="M 42.003906 18.375 C 41.882812 18.363281 41.761719 18.351562 41.640625 18.351562 C 41.5625 18.359375 41.5 18.363281 41.410156 18.378906 C 41.609375 18.371094 41.804688 18.378906 42.003906 18.375 Z M 42.003906 18.375 "/><path style=" stroke:none;fill-rule:nonzero;fill:#ffbd25;fill-opacity:1;" d="M 43.78125 36.425781 C 43.816406 36.019531 43.621094 36.585938 43.0625 36.816406 L 42.738281 37.277344 C 43.101562 37.015625 43.453125 36.730469 43.78125 36.425781 Z M 43.78125 36.425781 "/><path style=" stroke:none;fill-rule:nonzero;fill:#ffbd25;fill-opacity:1;" d="M 17.457031 23.0625 C 17.449219 23.0625 17.441406 23.054688 17.4375 23.046875 L 17.425781 23.082031 Z M 17.457031 23.0625 "/><path style=" stroke:none;fill-rule:nonzero;fill:#ffbd25;fill-opacity:1;" d="M 28.992188 42.625 C 29.078125 42.640625 29.167969 42.644531 29.257812 42.640625 C 29.164062 42.636719 29.082031 42.628906 28.992188 42.625 Z M 28.992188 42.625 "/><path style=" stroke:none;fill-rule:nonzero;fill:#ffbd25;fill-opacity:1;" d="M 46.714844 18.769531 C 46.140625 18.539062 45.550781 18.367188 44.945312 18.242188 L 45.457031 18.4375 C 45.757812 18.335938 46.425781 18.832031 46.714844 18.769531 Z M 46.714844 18.769531 "/><path style=" stroke:none;fill-rule:nonzero;fill:#ffbd25;fill-opacity:1;" d="M 36.992188 20.15625 C 37 20.136719 37 20.121094 36.988281 20.101562 C 36.976562 20.121094 36.976562 20.136719 36.992188 20.15625 Z M 36.992188 20.15625 "/><g clip-rule="nonzero" clip-path="url(#76778b176d)"><path style=" stroke:none;fill-rule:nonzero;fill:#ffbd25;fill-opacity:1;" d="M 51.875 22.039062 C 51.84375 21.722656 51.75 21.421875 51.59375 21.144531 C 51.464844 20.910156 51.332031 20.691406 51.171875 20.351562 C 51.011719 20.011719 50.835938 19.535156 50.460938 18.855469 L 50.453125 18.988281 C 49.710938 18.074219 48.796875 17.386719 47.710938 16.925781 C 46.753906 16.507812 45.761719 16.21875 44.730469 16.054688 C 42.71875 15.71875 40.71875 15.769531 38.726562 16.210938 C 36.867188 16.625 35.105469 17.304688 33.445312 18.246094 C 31.789062 19.183594 30.304688 20.347656 28.992188 21.734375 L 28.917969 21.632812 C 26.875 23.558594 25.109375 25.714844 23.628906 28.097656 C 22.171875 30.394531 20.898438 32.789062 19.800781 35.277344 C 19.519531 35.929688 19.253906 36.59375 19.003906 37.269531 C 18.648438 37.054688 18.308594 36.8125 17.988281 36.546875 L 18.046875 36.546875 C 17.476562 35.9375 16.945312 35.292969 16.453125 34.613281 C 15.925781 33.917969 15.546875 33.148438 15.3125 32.304688 C 15.382812 32.441406 15.496094 32.453125 15.574219 32.550781 C 15.511719 32.097656 15.417969 31.523438 15.375 30.957031 C 15.328125 30.679688 15.328125 30.394531 15.289062 30.148438 C 15.257812 29.929688 15.210938 29.710938 15.152344 29.5 C 15.285156 29.1875 15.355469 28.859375 15.367188 28.515625 C 15.386719 28.085938 15.5 27.679688 15.707031 27.300781 C 15.78125 27.230469 15.722656 27.457031 15.710938 27.558594 C 15.976562 26.867188 16.09375 26.355469 16.367188 25.652344 C 16.554688 24.832031 16.621094 24.285156 16.75 23.714844 C 16.921875 22.996094 17.214844 22.324219 17.628906 21.710938 C 18.058594 21.832031 17.128906 22.847656 17.4375 23.046875 C 17.519531 22.613281 17.703125 22.226562 17.980469 21.882812 C 17.972656 22.253906 18.039062 21.996094 18.070312 22.273438 C 18.304688 21.738281 18.472656 21.183594 18.566406 20.613281 C 18.507812 20.546875 18.390625 20.644531 18.195312 20.992188 C 18.191406 20.441406 19.257812 19.3125 19.761719 18.433594 C 19.566406 18.695312 18.90625 19.484375 18.957031 19.050781 C 19.496094 18.273438 19.910156 17.433594 20.191406 16.53125 C 21.109375 15.65625 19.921875 17.492188 20.308594 17.484375 C 20.523438 17.386719 21.015625 17.140625 20.796875 17.625 C 21.507812 16.777344 21.828125 16.011719 22.410156 15.203125 L 22.457031 15.277344 C 23.195312 14.144531 24.050781 13.101562 25.015625 12.15625 L 24.507812 12.523438 C 24.8125 12.195312 25.074219 11.835938 25.300781 11.449219 C 25.363281 11.5625 25.925781 11.164062 25.949219 11.289062 C 26.242188 10.738281 26.613281 10.246094 27.070312 9.820312 C 27.578125 9.371094 28 8.855469 28.335938 8.269531 C 28.703125 8.121094 28.585938 8.453125 28.566406 8.605469 C 27.871094 9.144531 27.585938 9.277344 27.355469 9.714844 C 27.90625 9.230469 28.386719 8.96875 28.371094 9.125 C 28.738281 8.429688 30.035156 7.246094 30.167969 6.804688 C 30.6875 6.59375 31.140625 6.351562 31.132812 6.65625 C 32.878906 5.222656 29.777344 6.699219 31.875 5.226562 C 32.964844 4.746094 31.121094 6.136719 32.484375 5.277344 L 32.261719 5.480469 C 33.554688 5.324219 32.691406 4.667969 33.808594 3.953125 C 34.136719 4.140625 33.171875 4.652344 34.058594 4.359375 C 35.035156 3.664062 35.226562 2.945312 36.34375 2.453125 L 36.246094 2.671875 C 36.902344 2.257812 38.265625 1.628906 38.941406 1.261719 C 39 1.304688 38.898438 1.34375 38.777344 1.429688 C 40.109375 0.925781 39.238281 1.019531 40.386719 0.730469 L 40.621094 0.441406 C 39.800781 0.609375 39.050781 0.9375 38.367188 1.425781 C 38.945312 0.914062 37.136719 1.578125 37.332031 1.160156 L 37.253906 1.328125 C 34.992188 2.042969 32.875 3.054688 30.898438 4.363281 C 29.804688 5.546875 28.636719 5.851562 27.460938 7.109375 C 27.503906 7.574219 27.265625 7.375 26.214844 8.386719 C 26.765625 7.84375 26.089844 8.101562 25.683594 8.386719 C 25.511719 8.675781 25.3125 8.9375 25.082031 9.183594 C 24.214844 9.613281 23.5 10.222656 22.9375 11.015625 C 22.238281 11.578125 22.988281 10.769531 23.074219 10.585938 C 22.671875 10.699219 22.683594 11.21875 22.378906 11.339844 C 22.378906 11.339844 22.359375 11.300781 22.410156 11.21875 C 21.476562 12.222656 20.859375 12.765625 19.898438 13.828125 C 20.121094 14.167969 19.105469 14.992188 18.839844 15.589844 C 18.867188 15.351562 18.238281 16.140625 17.9375 16.421875 C 17.855469 16.675781 17.792969 16.945312 17.71875 17.207031 C 17.488281 17.96875 16.960938 17.949219 16.53125 18.859375 L 16.722656 18.695312 C 16.144531 19.664062 15.488281 20.574219 14.753906 21.425781 C 13.625 24.136719 12.859375 26.945312 12.453125 29.851562 C 12.28125 31.34375 12.414062 32.808594 12.847656 34.246094 C 13.386719 35.988281 14.351562 37.449219 15.738281 38.632812 C 16.195312 38.878906 15.59375 38.246094 16 38.378906 C 16.300781 38.621094 16.492188 38.757812 16.671875 38.894531 C 16.847656 39.035156 17.023438 39.160156 17.3125 39.347656 C 16.867188 38.921875 16.875 39.082031 17 39.039062 C 16.703125 38.851562 16.390625 38.675781 16.105469 38.460938 C 16.085938 38.40625 16.179688 38.472656 16.140625 38.367188 C 15.785156 38.140625 15.46875 37.871094 15.1875 37.5625 C 15.722656 37.980469 16.03125 37.90625 16.640625 38.546875 C 16.503906 38.507812 16.378906 38.4375 16.273438 38.339844 C 16.824219 38.828125 16.933594 38.742188 17.339844 39.109375 C 17.855469 39.539062 17.773438 39.355469 17.78125 39.511719 C 17.914062 39.613281 18.058594 39.699219 18.199219 39.789062 C 18.175781 39.871094 18.152344 39.953125 18.132812 40.03125 C 17.949219 40.039062 17.558594 39.917969 17.875 40.0625 C 17.949219 40.097656 18.023438 40.125 18.097656 40.15625 C 17.828125 41.1875 17.625 42.234375 17.484375 43.292969 C 17.296875 44.726562 17.257812 46.167969 17.371094 47.613281 C 17.496094 49.089844 17.808594 50.53125 18.300781 51.929688 C 18.789062 52.921875 18.824219 52.199219 19.304688 53 C 19.460938 53.371094 19.894531 54.171875 19.773438 54.25 C 19.328125 53.59375 19.417969 54.046875 19.238281 53.835938 C 19.824219 55.160156 20.652344 56.316406 21.710938 57.304688 C 21.519531 57.019531 21.347656 56.726562 21.195312 56.421875 C 21.535156 56.738281 22.007812 57.289062 22.292969 57.601562 C 22.089844 57.550781 22.40625 58.125 22.09375 57.914062 C 22.765625 58.277344 23.382812 58.71875 23.9375 59.242188 C 24.1875 59.5 24.464844 59.722656 24.765625 59.910156 C 24.621094 60.222656 24.511719 60.546875 24.4375 60.882812 C 24.496094 61.773438 24.863281 62.019531 24.671875 62.980469 C 24.238281 63.007812 24.601562 62.367188 24.269531 62.316406 C 24.363281 62.53125 24.371094 62.75 24.28125 62.96875 C 24.125 62.792969 24.175781 62.929688 24.027344 62.800781 C 23.890625 63.015625 24.441406 63.683594 24.40625 63.671875 C 24.488281 63.683594 24.535156 63.613281 24.527344 63.417969 C 24.78125 63.652344 24.542969 64.386719 24.6875 64.859375 C 24.6875 64.703125 24.746094 64.214844 24.960938 64.390625 C 24.890625 65.023438 25.351562 65.199219 25.566406 65.59375 C 25.457031 66.183594 25.144531 65.234375 24.867188 65.367188 C 24.765625 65.476562 24.554688 65.753906 24.40625 65.511719 C 24.480469 66 24.652344 66.449219 24.917969 66.863281 L 24.832031 66.871094 C 25.015625 67.53125 25.597656 68.078125 25.644531 68.648438 L 25.628906 68.339844 C 25.71875 68.421875 25.8125 68.742188 26.042969 68.839844 C 25.902344 68.875 25.96875 69.320312 25.785156 69.207031 C 26.308594 69.289062 26.710938 70.425781 27.269531 70.449219 C 27.265625 70.652344 27.039062 70.640625 26.921875 70.652344 C 26.726562 70.285156 26.742188 70.121094 26.480469 70.019531 C 26.644531 70.320312 26.6875 70.589844 26.570312 70.601562 C 26.988281 70.757812 27.554688 71.351562 27.882812 71.304688 C 27.921875 71.582031 28.023438 71.808594 27.78125 71.898438 C 28.574219 72.589844 28.003906 71.046875 28.761719 71.902344 C 28.960938 72.433594 28.175781 71.75 28.628906 72.324219 L 28.507812 72.253906 C 28.453125 73.066406 29.070312 72.222656 29.488281 72.609375 C 29.332031 72.917969 29.019531 72.515625 29.171875 72.96875 C 29.394531 73.09375 29.632812 73.15625 29.886719 73.148438 C 30.128906 73.152344 30.339844 73.234375 30.515625 73.394531 L 30.367188 73.464844 C 30.523438 73.546875 30.730469 73.695312 30.945312 73.832031 C 31.140625 73.949219 31.34375 74.058594 31.550781 74.152344 C 31.539062 74.21875 31.496094 74.1875 31.429688 74.175781 C 31.96875 74.5625 31.742188 74.128906 32.144531 74.546875 L 32.339844 74.453125 C 32.082031 74.15625 31.757812 73.980469 31.367188 73.929688 C 31.648438 73.914062 31.359375 73.574219 31.324219 73.335938 C 31.355469 73.347656 31.386719 73.363281 31.417969 73.378906 L 32.015625 73.570312 L 31.9375 73.480469 L 31.382812 73.332031 L 31.328125 73.308594 C 31.320312 73.257812 31.339844 73.214844 31.375 73.179688 C 31.445312 73.207031 31.515625 73.234375 31.589844 73.25 L 31.746094 73.15625 C 31.554688 73.148438 31.371094 73.117188 31.1875 73.070312 C 31.089844 72.910156 30.992188 72.753906 30.878906 72.605469 C 31.171875 72.742188 31.445312 72.921875 31.726562 73.046875 C 32.027344 73.226562 32.351562 73.300781 32.703125 73.269531 C 32.519531 73.199219 32.332031 73.066406 32.128906 72.980469 C 31.929688 72.875 31.703125 72.824219 31.519531 72.714844 C 31.289062 72.59375 31.042969 72.515625 30.78125 72.484375 C 30.359375 71.992188 29.964844 71.480469 29.601562 70.945312 C 29.480469 70.902344 29.371094 70.839844 29.277344 70.75 C 29.21875 70.65625 29.148438 70.570312 29.070312 70.488281 C 28.941406 70.179688 28.753906 69.910156 28.503906 69.683594 C 28.46875 69.695312 28.4375 69.703125 28.402344 69.710938 C 28.339844 69.613281 28.28125 69.515625 28.222656 69.429688 C 28.183594 69.363281 28.148438 69.304688 28.113281 69.25 C 28.230469 69.277344 28.28125 69.023438 28.25 68.875 C 28.113281 68.824219 28.007812 68.742188 27.921875 68.625 C 27.984375 68.457031 27.992188 67.714844 27.667969 67.570312 C 27.664062 67.21875 27.8125 67.601562 27.914062 67.636719 C 28.054688 67.441406 27.667969 67.445312 27.757812 67.292969 C 27.78125 67.289062 27.808594 67.292969 27.828125 67.308594 C 27.695312 66.886719 27.621094 66.453125 27.597656 66.011719 C 27.21875 66.050781 27.363281 65.535156 27.195312 65.328125 C 27.324219 65.386719 27.304688 65.015625 27.359375 64.867188 C 27.253906 64.785156 27.148438 64.699219 27.050781 64.609375 C 26.800781 64.335938 27.1875 64.207031 27.066406 63.84375 L 26.996094 63.933594 C 26.945312 63.476562 27.066406 63.070312 27.367188 62.71875 C 27.203125 61.917969 27.277344 61.140625 27.582031 60.386719 C 27.617188 60.386719 27.648438 60.390625 27.683594 60.390625 C 27.882812 60.40625 28.09375 60.410156 28.300781 60.414062 C 29.394531 60.871094 30.40625 61.136719 31.550781 61.542969 L 31.933594 61.214844 L 32.273438 61.476562 C 33.601562 61.679688 34.898438 61.546875 36.15625 61.074219 C 36.566406 60.96875 36.457031 61.261719 36.679688 61.316406 C 37.609375 61.121094 37.71875 60.671875 38.515625 60.308594 C 38.4375 60.449219 38.339844 60.804688 38.710938 60.691406 C 38.746094 60.574219 38.730469 60.402344 38.976562 60.371094 L 38.902344 60.519531 C 39.164062 60.582031 39.308594 60.363281 39.757812 60.246094 C 40.4375 59.921875 40.960938 59.433594 41.335938 58.78125 C 41.414062 58.738281 41.492188 58.691406 41.5625 58.644531 L 41.546875 58.59375 C 41.9375 58.445312 41.566406 59.011719 41.703125 59.007812 C 41.214844 59.160156 41.4375 59.238281 41.402344 59.398438 C 41.59375 59.191406 41.820312 58.957031 42.074219 59.101562 C 42.355469 58.953125 42.578125 58.742188 42.734375 58.460938 C 42.632812 58.636719 42.425781 58.617188 42.503906 58.421875 C 42.800781 58.328125 43.367188 57.808594 43.515625 58.074219 C 44.988281 56.925781 46.308594 55.625 47.472656 54.167969 C 47.542969 53.824219 47.277344 54.316406 47.296875 54.109375 C 47.40625 53.625 47.613281 53.898438 47.6875 53.503906 L 47.738281 53.726562 C 47.996094 53.328125 48.160156 52.894531 48.226562 52.425781 C 48.273438 52.34375 48.320312 52.257812 48.359375 52.171875 C 48.484375 52.183594 48.644531 51.925781 48.527344 52.285156 C 48.636719 52.0625 49.550781 52.242188 49.507812 51.960938 C 49.222656 51.910156 48.9375 51.859375 48.65625 51.800781 C 48.59375 51.75 48.824219 51.460938 48.757812 51.464844 C 49.003906 51.375 49.214844 51.234375 49.386719 51.039062 C 49.605469 51.058594 49.378906 51.410156 49.261719 51.601562 C 49.546875 51.804688 49.820312 51.027344 49.941406 51.46875 C 50.121094 50.996094 49.753906 51.449219 49.777344 51.128906 C 49.863281 51.011719 49.945312 50.886719 50.03125 50.765625 L 49.785156 51.019531 C 49.847656 50.644531 49.664062 50.4375 50.019531 50.058594 C 49.976562 49.859375 49.933594 49.667969 49.878906 49.46875 C 50.148438 49.503906 50.042969 49.136719 50.164062 48.894531 L 50.289062 49.101562 C 50.339844 48.851562 50.4375 48.617188 50.585938 48.410156 C 50.777344 48.664062 50.46875 48.734375 50.664062 48.867188 C 50.722656 48.742188 50.773438 48.605469 50.828125 48.472656 C 50.675781 48.441406 50.605469 48.167969 50.460938 48.441406 C 50.375 48.285156 50.292969 48.128906 50.222656 47.96875 C 50.25 47.675781 50.25 47.382812 50.21875 47.089844 L 50.496094 47.25 C 50.492188 47.222656 50.488281 47.199219 50.480469 47.171875 C 50.515625 47.183594 50.542969 47.175781 50.566406 47.15625 C 50.621094 46.722656 50.480469 46.367188 50.152344 46.085938 L 50.125 46.0625 C 50.089844 45.980469 50.039062 45.90625 49.984375 45.835938 C 49.855469 45.6875 49.738281 45.554688 49.574219 45.386719 C 49.527344 45.171875 49.421875 44.992188 49.261719 44.84375 C 49.082031 44.6875 48.914062 44.519531 48.757812 44.339844 C 49.003906 44.390625 48.707031 44.003906 48.597656 43.75 C 48.613281 43.761719 48.632812 43.773438 48.644531 43.78125 L 48.597656 43.75 C 48.578125 43.707031 48.566406 43.667969 48.558594 43.625 L 48.910156 43.699219 C 48.699219 43.574219 48.574219 43.367188 48.710938 43.316406 C 48.652344 43.417969 48.417969 43.300781 48.136719 43.144531 C 47.855469 42.992188 47.558594 42.871094 47.25 42.785156 L 47.242188 42.941406 C 47.101562 42.875 46.957031 42.8125 46.816406 42.765625 C 46.589844 42.675781 46.351562 42.609375 46.113281 42.5625 C 46.722656 42.425781 47.292969 42.519531 47.824219 42.84375 C 48.386719 42.59375 47.308594 42.605469 47.019531 42.328125 C 47.042969 42.308594 47.070312 42.300781 47.101562 42.316406 C 47.070312 42.300781 47.039062 42.285156 47.011719 42.265625 C 47.308594 42.308594 47.785156 42.457031 47.988281 42.28125 C 47.484375 42.078125 47.4375 42.550781 46.941406 42.121094 C 46.472656 42.097656 46.214844 41.640625 45.933594 41.550781 C 45.589844 41.683594 45.53125 42.058594 44.832031 41.9375 L 45.167969 41.675781 C 44.75 41.644531 44.648438 41.75 44.5625 41.851562 C 44.472656 41.957031 44.398438 42.046875 44.03125 42.066406 C 44.285156 42.082031 43.808594 42.359375 44.28125 42.332031 C 43.9375 42.503906 43.574219 42.582031 43.191406 42.566406 C 43.105469 42.628906 43.191406 42.664062 43.195312 42.761719 C 43.210938 42.765625 43.226562 42.765625 43.246094 42.769531 C 43.113281 42.804688 42.980469 42.847656 42.84375 42.898438 C 42.890625 42.839844 42.945312 42.796875 43.007812 42.761719 L 42.703125 42.683594 C 42.792969 42.808594 42.601562 42.890625 42.476562 42.976562 C 42.484375 42.992188 42.496094 43.003906 42.507812 43.015625 C 42.402344 43.046875 42.292969 43.078125 42.175781 43.105469 C 42.167969 43.097656 42.164062 43.09375 42.15625 43.085938 C 42.214844 43.0625 42.273438 43.042969 42.335938 43.027344 C 42.269531 43.035156 42.199219 43.039062 42.125 43.042969 C 42.097656 42.898438 42.128906 42.769531 42.222656 42.65625 L 42.289062 42.660156 C 42.210938 42.5625 42.238281 42.511719 41.980469 42.535156 C 41.875 42.722656 42.082031 42.851562 42.058594 43.042969 C 41.796875 43.046875 41.535156 43.0625 41.277344 43.097656 C 41.355469 43.054688 41.390625 42.992188 41.390625 42.90625 C 40.953125 43.039062 40.941406 43.292969 40.496094 43.433594 C 40.476562 43.277344 40.882812 43.054688 40.777344 42.902344 L 40.457031 42.957031 C 41.140625 42.601562 40.15625 42.664062 40.671875 42.328125 C 40.347656 42.339844 40.421875 42.734375 39.972656 42.746094 C 40.140625 42.8125 40.535156 42.890625 40.257812 43.175781 L 39.84375 43.300781 C 39.609375 43.257812 40.066406 42.789062 39.757812 42.8125 L 39.421875 43.132812 C 39.484375 43.207031 39.691406 43.136719 39.644531 43.316406 C 39.371094 43.359375 39.476562 43.84375 39.3125 44.117188 C 39.113281 44.234375 38.953125 44.316406 38.828125 44.269531 C 38.664062 44.523438 38.476562 44.757812 38.265625 44.972656 L 38.089844 45 C 37.730469 45.28125 37.695312 45.238281 37.71875 45.179688 C 37.566406 45.25 37.433594 45.324219 37.304688 45.398438 C 37.367188 45.308594 37.390625 45.210938 37.375 45.101562 C 37.359375 44.992188 37.304688 44.90625 37.214844 44.84375 C 37.035156 45.011719 37.085938 45.351562 37.242188 45.359375 C 37.023438 45.4375 37.011719 45.53125 36.980469 45.605469 C 36.921875 45.648438 36.855469 45.6875 36.800781 45.730469 C 36.777344 45.738281 36.753906 45.742188 36.726562 45.746094 C 36.480469 45.800781 36.648438 45.441406 36.519531 45.398438 C 36.152344 45.648438 36.632812 45.757812 36.207031 45.992188 C 36.203125 45.941406 36.230469 45.90625 36.167969 45.886719 C 35.925781 45.984375 35.808594 46.160156 35.824219 46.421875 C 35.371094 46.285156 35.226562 46.933594 35.042969 46.601562 C 34.605469 47.074219 35.242188 46.707031 35.226562 46.886719 C 35.125 47.179688 34.664062 47.367188 34.507812 47.414062 C 34.625 47.3125 34.675781 47.140625 34.828125 47.09375 L 34.5625 46.972656 C 33.828125 47.324219 34.539062 47.742188 33.808594 48.054688 C 34.027344 47.699219 33.785156 47.820312 33.816406 47.550781 C 33.765625 47.675781 33.257812 48.007812 33.664062 47.925781 C 33.476562 48.058594 33.273438 48.179688 33.066406 48.285156 C 32.914062 48.496094 32.820312 48.734375 32.777344 48.992188 C 32.511719 49.183594 32.21875 49.304688 31.894531 49.359375 C 31.402344 50.082031 30.609375 50.417969 30.140625 51.230469 L 30.199219 51.191406 C 29.691406 51.683594 30.660156 51.191406 30.171875 51.730469 C 30 51.445312 29.71875 51.910156 29.4375 51.988281 C 28.726562 52.582031 28.644531 53.355469 27.996094 53.921875 C 27.945312 53.878906 27.90625 53.785156 27.992188 53.644531 C 27.609375 54.09375 27.28125 54.578125 27.003906 55.101562 L 26.984375 55.058594 C 26.542969 55.539062 26.253906 56.09375 26.117188 56.730469 C 25.996094 56.632812 25.871094 56.542969 25.734375 56.46875 C 25.441406 56.292969 25.167969 56.085938 24.917969 55.855469 C 24.042969 55.125 23.214844 54.351562 22.449219 53.574219 C 22.394531 53.460938 22.363281 53.34375 22.359375 53.21875 C 22.273438 53.199219 22.222656 53.234375 22.203125 53.320312 C 22.050781 53.160156 21.898438 53.003906 21.75 52.84375 C 21.9375 52.945312 22.125 53.039062 22.316406 53.128906 C 22.136719 52.976562 21.941406 52.851562 21.726562 52.753906 L 21.707031 52.796875 C 21.683594 52.773438 21.660156 52.746094 21.636719 52.722656 C 21.601562 52.648438 21.574219 52.589844 21.546875 52.53125 C 21.550781 52.40625 21.5625 52.285156 21.582031 52.160156 C 21.628906 52.195312 21.683594 52.238281 21.734375 52.28125 L 21.976562 52.550781 L 22.011719 52.46875 C 22.339844 53.335938 22.394531 52.988281 22.589844 53.117188 C 22.371094 52.886719 22.195312 52.628906 22.066406 52.339844 L 22.144531 52.167969 C 22.0625 52.054688 22.015625 52.023438 21.980469 52.03125 C 21.96875 51.953125 21.972656 51.878906 21.992188 51.804688 C 21.757812 51.242188 21.488281 50.699219 21.1875 50.171875 C 21.371094 50.5 21.367188 50.839844 21.136719 50.546875 C 21.117188 50.464844 21.09375 50.367188 21.066406 50.261719 C 21.105469 50.292969 21.125 50.332031 21.132812 50.378906 C 21.144531 50.160156 21.261719 50 21.191406 49.761719 C 21.09375 49.820312 21.03125 49.90625 21.011719 50.019531 C 20.992188 49.945312 20.976562 49.871094 20.957031 49.796875 C 21.140625 49.621094 20.894531 49.472656 20.898438 49.214844 C 20.90625 49.300781 20.902344 49.386719 20.886719 49.472656 C 20.777344 48.929688 20.71875 48.433594 20.921875 48.453125 C 20.601562 46.589844 20.625 44.730469 20.984375 42.878906 C 21.0625 42.445312 21.160156 42.011719 21.265625 41.578125 C 21.480469 41.652344 21.695312 41.726562 21.914062 41.796875 L 21.847656 41.820312 C 22.03125 41.742188 22.210938 41.757812 22.382812 41.859375 C 22.421875 41.898438 22.511719 41.976562 22.390625 41.960938 C 22.648438 41.988281 22.90625 41.992188 23.160156 42.011719 C 22.683594 42.136719 23.804688 42.195312 23.65625 42.40625 C 26.132812 42.832031 26.8125 42.417969 28.992188 42.625 C 28.636719 42.542969 29.644531 42.183594 30.304688 42.167969 C 30.691406 42.175781 30.792969 42.199219 30.566406 42.339844 L 31.402344 42.0625 C 32.554688 42.261719 33.546875 41.757812 35.105469 41.390625 L 35.058594 41.519531 C 35.667969 41.144531 36.308594 40.832031 36.980469 40.589844 L 36.917969 40.851562 C 37.976562 40.527344 37.496094 40.101562 38.632812 39.710938 C 38.523438 39.523438 37.792969 39.722656 37.597656 39.578125 C 37.894531 39.589844 38.175781 39.53125 38.441406 39.402344 C 38.726562 39.261719 38.921875 39.113281 38.753906 39.113281 C 39.730469 38.457031 39.464844 38.722656 39.578125 38.71875 L 40.105469 38.261719 C 40.792969 37.816406 40.492188 38.375 40.296875 38.648438 C 40.910156 38.070312 41.59375 37.589844 42.34375 37.207031 C 42.269531 37.304688 42.203125 37.414062 42.121094 37.507812 C 42.441406 37.285156 42.75 37.046875 43.0625 36.816406 C 43.347656 36.480469 43.652344 36.160156 43.976562 35.859375 C 44.328125 35.511719 44.699219 35.183594 45.089844 34.878906 L 44.808594 35.5625 C 45.421875 35.199219 44.996094 35.242188 45.089844 35.078125 C 45.324219 34.773438 45.589844 34.496094 45.882812 34.25 C 46.101562 34.085938 46.308594 34 46.566406 33.835938 C 47.058594 33.109375 47.621094 32.4375 48.246094 31.820312 C 48.835938 31.226562 49.261719 30.535156 49.523438 29.742188 C 49.609375 29.71875 49.683594 29.6875 49.765625 29.660156 C 50.066406 28.628906 50.625 27.664062 50.992188 26.648438 C 51.460938 25.710938 51.664062 24.714844 51.605469 23.664062 C 51.824219 23.144531 51.914062 22.601562 51.875 22.039062 Z M 31.363281 73.175781 L 31.289062 73.222656 C 31.269531 73.1875 31.242188 73.15625 31.21875 73.121094 C 31.265625 73.140625 31.316406 73.15625 31.363281 73.175781 Z M 44.097656 42.847656 C 44.074219 42.859375 44.050781 42.863281 44.023438 42.867188 L 44.007812 42.863281 C 44.035156 42.851562 44.066406 42.847656 44.097656 42.847656 Z M 30.074219 55.28125 C 30.007812 54.773438 30.554688 54.582031 30.648438 54.503906 C 30.757812 54.664062 30.582031 54.832031 30.519531 55.027344 C 30.441406 55.117188 30.371094 55.214844 30.3125 55.316406 C 30.308594 55.25 30.320312 55.179688 30.4375 55.082031 C 30.316406 54.953125 30.285156 55.035156 30.355469 54.742188 C 30.195312 55.09375 30.003906 55.425781 29.785156 55.742188 C 29.917969 55.738281 29.90625 56.113281 29.953125 55.949219 C 30.007812 55.792969 30.070312 55.644531 30.132812 55.488281 L 30.191406 55.617188 C 30.226562 55.59375 30.257812 55.5625 30.285156 55.53125 C 30.285156 55.535156 30.285156 55.542969 30.289062 55.546875 C 30.289062 55.535156 30.292969 55.523438 30.292969 55.515625 C 30.320312 55.472656 30.328125 55.433594 30.320312 55.386719 C 30.363281 55.289062 30.421875 55.199219 30.5 55.125 C 30.492188 55.167969 30.496094 55.207031 30.507812 55.25 L 30.816406 55.140625 L 30.664062 55.007812 L 30.933594 54.734375 L 30.953125 54.773438 C 30.917969 54.691406 30.882812 54.605469 31 54.570312 C 31.03125 54.574219 31.097656 54.578125 31.082031 54.617188 L 31.164062 54.332031 C 31.230469 54.589844 31.359375 54.179688 31.523438 54.363281 C 32.179688 53.761719 32.007812 53.277344 32.792969 52.921875 C 32.621094 52.9375 32.6875 52.476562 32.894531 52.332031 C 33.035156 52.269531 33.097656 52.285156 33.101562 52.414062 L 33.242188 52.097656 C 33.792969 52.082031 33.90625 51.636719 34.433594 51.328125 L 34.480469 51.425781 C 34.554688 51.148438 34.710938 50.929688 34.945312 50.765625 L 35.039062 50.964844 C 35.445312 50.8125 34.980469 50.421875 35.414062 50.234375 C 35.355469 50.171875 35.28125 50.136719 35.199219 50.128906 C 35.328125 49.980469 35.449219 49.828125 35.558594 49.664062 L 35.261719 49.800781 L 35.261719 49.804688 C 35.253906 49.792969 35.242188 49.789062 35.230469 49.785156 C 35.519531 49.421875 35.476562 49.585938 35.542969 49.605469 L 35.660156 49.328125 C 35.917969 49.132812 35.929688 49.496094 35.921875 49.671875 C 35.996094 49.292969 36.359375 49.222656 36.648438 49.046875 L 36.605469 49.210938 L 36.980469 48.972656 C 37.144531 48.617188 37.410156 48.375 37.777344 48.242188 L 37.75 48.640625 C 38.054688 48.605469 37.796875 48.476562 37.820312 48.390625 C 38.066406 48.023438 38.261719 48.132812 38.542969 48.140625 C 38.894531 47.492188 39.917969 47.75 40.105469 47.066406 L 40.265625 47.175781 C 40.679688 46.421875 41.644531 46.460938 41.867188 45.753906 C 42.375 45.84375 42.421875 45.675781 42.480469 45.488281 C 42.53125 45.308594 42.59375 45.105469 43.027344 45.253906 L 42.976562 45.175781 C 43.253906 45.09375 43.535156 45.039062 43.824219 45.003906 C 44.601562 44.921875 45.339844 45.058594 46.035156 45.421875 C 46.378906 45.589844 46.664062 45.832031 46.886719 46.144531 C 47.113281 46.457031 47.25 46.800781 47.300781 47.183594 L 47.175781 47.179688 C 47.085938 47.980469 46.84375 48.730469 46.453125 49.433594 C 45.996094 50.285156 45.476562 51.09375 44.898438 51.867188 C 44.105469 52.933594 43.199219 53.894531 42.179688 54.75 C 41.71875 54.976562 41.242188 55.191406 40.742188 55.382812 C 40.570312 55.597656 40.402344 55.820312 40.222656 56.03125 C 39.960938 56.066406 39.699219 56.105469 39.4375 56.132812 C 38.003906 56.640625 36.738281 57.058594 35.472656 57.421875 C 34.1875 57.820312 32.875 58.089844 31.539062 58.226562 C 30.664062 58.273438 31.011719 57.988281 30.613281 57.890625 C 29.925781 57.851562 29.441406 57.84375 29 57.835938 C 29.195312 57.503906 29.386719 57.148438 29.578125 56.746094 C 29.5625 56.542969 29.347656 56.761719 29.265625 56.558594 C 29.335938 56.375 29.421875 56.203125 29.535156 56.042969 C 29.332031 56.175781 29.457031 56.210938 29.382812 56.132812 C 29.34375 56.257812 29.316406 56.386719 29.285156 56.515625 C 29.25 56.515625 29.261719 56.472656 29.195312 56.476562 C 29.179688 56.628906 29.132812 56.773438 29.058594 56.90625 C 29.082031 56.65625 28.875 56.457031 29.128906 56.230469 C 29.148438 56.269531 29.140625 56.3125 29.117188 56.398438 C 29.269531 56.179688 29.160156 56.097656 29.332031 55.964844 C 29.515625 55.789062 29.410156 55.792969 29.53125 55.832031 C 29.703125 55.640625 29.890625 55.460938 30.074219 55.28125 Z M 34.796875 50.019531 C 34.902344 50.054688 35.007812 50.046875 35.109375 49.992188 C 35.082031 50.027344 35.050781 50.0625 35.019531 50.097656 C 34.9375 50.089844 34.863281 50.066406 34.796875 50.019531 Z M 24.804688 60.03125 C 24.746094 60.054688 24.765625 59.96875 24.773438 59.914062 C 24.800781 59.929688 24.828125 59.941406 24.855469 59.957031 C 24.835938 59.984375 24.828125 60.003906 24.804688 60.03125 Z M 45.003906 42.417969 C 45.148438 42.527344 45.414062 42.5 45.65625 42.605469 C 45.714844 42.601562 45.777344 42.59375 45.839844 42.589844 C 46.058594 42.675781 46.492188 42.78125 46.957031 42.941406 C 46.628906 42.894531 46.308594 42.820312 45.992188 42.722656 C 45.738281 42.667969 45.519531 42.734375 45.335938 42.917969 C 45.21875 42.917969 45.117188 42.925781 44.984375 42.925781 C 44.902344 42.753906 44.90625 42.585938 45.003906 42.417969 Z M 44.15625 42.71875 C 44.242188 42.613281 44.332031 42.507812 44.429688 42.40625 C 44.820312 42.515625 44.835938 42.761719 44.613281 42.878906 C 44.714844 42.863281 44.808594 42.828125 44.878906 42.886719 C 44.878906 42.898438 44.878906 42.910156 44.875 42.921875 C 44.808594 42.921875 44.730469 42.914062 44.636719 42.90625 C 44.78125 42.9375 44.800781 42.953125 44.410156 42.886719 L 44.269531 42.878906 C 44.308594 42.878906 44.347656 42.875 44.386719 42.875 L 44.402344 42.886719 L 44.410156 42.886719 C 44.496094 42.894531 44.566406 42.898438 44.636719 42.90625 C 44.546875 42.882812 44.453125 42.867188 44.359375 42.855469 L 44.378906 42.871094 C 44.355469 42.863281 44.328125 42.859375 44.304688 42.851562 C 44.324219 42.855469 44.339844 42.855469 44.359375 42.855469 L 44.230469 42.769531 C 44.207031 42.765625 44.183594 42.761719 44.160156 42.757812 C 44.164062 42.746094 44.167969 42.738281 44.167969 42.726562 L 44.15625 42.71875 L 44.132812 42.75 C 43.980469 42.710938 43.824219 42.691406 43.667969 42.695312 C 43.835938 42.59375 44 42.601562 44.15625 42.71875 Z M 42.027344 43.136719 Z M 26.078125 56.863281 L 26.070312 56.890625 C 26.054688 56.878906 26.039062 56.871094 26.023438 56.855469 Z M 21.300781 41.410156 C 21.320312 41.324219 21.351562 41.238281 21.375 41.152344 C 21.675781 41.289062 21.90625 41.410156 22.03125 41.453125 C 21.78125 41.519531 21.539062 41.503906 21.300781 41.410156 Z M 49.816406 21.988281 C 49.75 22.171875 49.65625 22.335938 49.527344 22.480469 C 49.386719 22.355469 49.378906 22.109375 49.359375 21.824219 C 49.363281 21.535156 49.292969 21.261719 49.148438 21.003906 C 49.074219 21.207031 49.160156 21.421875 49.222656 21.753906 C 49.316406 22.191406 49.300781 22.628906 49.171875 23.058594 C 49.070312 22.804688 49.027344 22.542969 49.050781 22.269531 C 49.046875 22.007812 49.011719 21.773438 48.84375 21.710938 C 48.902344 22.085938 48.9375 22.320312 48.976562 22.5625 C 49.023438 22.894531 48.996094 23.222656 48.898438 23.546875 C 48.796875 23.390625 48.867188 22.5625 48.660156 22.617188 C 48.621094 22.785156 48.578125 22.957031 48.519531 23.128906 C 48.585938 22.484375 48.457031 22.558594 48.355469 22.632812 C 48.238281 22.71875 48.136719 22.796875 48.101562 22.386719 C 47.964844 22.757812 48.351562 22.972656 48.011719 23.613281 C 48.1875 23.464844 48.539062 22.941406 48.527344 23.640625 C 48.441406 23.890625 48.34375 24.148438 48.230469 24.402344 C 47.996094 24.675781 48.136719 23.503906 47.871094 23.96875 C 47.835938 24.253906 47.78125 24.535156 47.707031 24.8125 C 47.808594 24.816406 48.007812 24.429688 48.035156 24.722656 C 47.753906 25.171875 48.074219 25.636719 47.980469 26.28125 C 47.871094 26.636719 47.679688 26.941406 47.410156 27.191406 C 47.332031 27.503906 47.230469 27.828125 47.117188 28.15625 C 47 28.488281 46.820312 28.792969 46.667969 29.117188 C 46.515625 29.4375 46.359375 29.753906 46.210938 30.058594 C 46.042969 30.351562 45.890625 30.640625 45.765625 30.917969 C 46.097656 30.160156 45.484375 30.753906 45.089844 31.042969 C 45.605469 30.285156 45.367188 30.113281 45.175781 30.050781 C 44.878906 30.5 44.90625 30.972656 45.148438 30.8125 C 44.507812 31.476562 44.925781 31.453125 44.234375 31.933594 C 43.808594 32.257812 44.191406 31.546875 43.984375 31.605469 C 43.320312 32.324219 44.082031 32.054688 43.300781 32.796875 C 43.3125 32.730469 43.375 32.652344 43.273438 32.671875 C 42.882812 32.941406 42.609375 33.300781 42.460938 33.753906 C 42.277344 33.796875 42.109375 33.878906 41.964844 33.996094 C 41.808594 34.101562 41.660156 34.214844 41.523438 34.339844 C 41.261719 34.5625 41.074219 34.730469 41.003906 34.546875 C 39.972656 35.503906 41.292969 34.578125 41.160156 34.851562 C 40.703125 35.355469 40.160156 35.734375 39.527344 35.988281 C 39.777344 35.761719 40.042969 35.558594 40.332031 35.382812 L 39.933594 35.335938 C 38.398438 36.152344 39.34375 36.46875 37.738281 37.117188 C 38.4375 36.566406 37.898438 36.800781 38.183594 36.429688 C 37.988281 36.613281 36.804688 37.195312 37.59375 36.980469 C 37.140625 37.207031 36.671875 37.394531 36.183594 37.539062 C 35.945312 37.699219 35.699219 37.867188 35.476562 38.019531 C 35.273438 38.132812 35.089844 38.269531 34.921875 38.429688 C 34.550781 38.554688 34.167969 38.648438 33.78125 38.707031 C 33.445312 38.738281 33.164062 38.734375 32.945312 38.734375 C 31.191406 39.445312 29.429688 39.355469 27.503906 39.589844 L 27.648438 39.609375 C 26.128906 39.550781 28.328125 39.957031 26.734375 39.941406 C 26.847656 39.78125 26.609375 39.726562 26.285156 39.691406 C 25.949219 39.644531 25.625 39.5625 25.304688 39.457031 C 24.355469 39.300781 23.539062 39.207031 22.742188 39.0625 C 22.519531 39.019531 22.292969 38.972656 22.070312 38.917969 C 22.28125 38.328125 22.503906 37.742188 22.742188 37.164062 C 22.863281 36.476562 22.484375 37.613281 22.523438 37.226562 C 22.726562 36.234375 22.929688 36.550781 23.109375 35.761719 L 23.128906 36.128906 C 23.636719 35.070312 23.929688 33.804688 24.347656 32.703125 C 24.425781 32.964844 24.953125 31.945312 24.585938 32.84375 C 24.832031 32.328125 25.929688 32.164062 25.988281 31.707031 L 24.96875 31.851562 C 24.914062 31.785156 25.351562 31.117188 25.265625 31.160156 C 25.652344 30.847656 26 30.496094 26.3125 30.109375 C 26.574219 30.082031 26.082031 30.773438 25.84375 31.175781 C 26.101562 31.40625 26.847656 29.957031 26.761719 30.691406 C 27.234375 29.824219 26.539062 30.71875 26.742188 30.148438 L 27.273438 29.464844 L 26.816406 29.960938 C 27.117188 29.300781 27.039062 28.941406 27.75 28.261719 C 27.847656 27.925781 27.953125 27.589844 28.066406 27.257812 C 28.339844 27.339844 28.550781 26.710938 28.921875 26.347656 L 28.855469 26.707031 C 29.125 26.335938 29.449219 26.015625 29.832031 25.757812 C 29.761719 26.191406 29.394531 26.183594 29.460938 26.449219 C 29.640625 26.28125 29.8125 26.105469 29.996094 25.945312 C 29.878906 25.847656 30.101562 25.417969 29.679688 25.75 C 29.941406 24.785156 30.472656 24.003906 31.273438 23.402344 C 32.023438 23.070312 30.8125 24.140625 31.230469 24.109375 C 32.589844 23 32.425781 22.160156 33.308594 21.5625 C 34.480469 20.910156 34.28125 20.738281 35.492188 20.082031 C 35.335938 20.261719 35.570312 20.191406 35.878906 20.089844 C 36.152344 19.988281 36.433594 19.925781 36.726562 19.90625 C 36.585938 20.027344 36.453125 20.164062 36.320312 20.289062 C 36.617188 20.097656 36.941406 20.015625 36.988281 20.101562 C 37.21875 19.875 37.488281 19.714844 37.796875 19.621094 C 38.304688 19.398438 38.953125 19.1875 39.386719 19.039062 L 39.183594 18.871094 C 39.972656 18.566406 40.792969 18.394531 41.640625 18.351562 C 41.976562 18.332031 42.308594 18.261719 42.625 18.152344 C 42.886719 18.019531 43.15625 17.933594 43.445312 17.886719 C 43.933594 18.117188 43.84375 18.328125 43.664062 18.539062 C 43.234375 18.433594 42.796875 18.378906 42.351562 18.371094 C 40.894531 18.585938 39.890625 19.195312 38.519531 19.480469 C 38.074219 20.125 39.410156 19.152344 40.128906 19.21875 C 40.113281 19.253906 40.066406 19.269531 40.019531 19.28125 C 40.074219 19.273438 40.128906 19.269531 40.1875 19.269531 C 39.707031 19.40625 38.941406 19.683594 38.882812 19.972656 C 39.132812 19.886719 39.351562 19.746094 39.535156 19.558594 C 39.789062 19.355469 40.078125 19.289062 40.394531 19.347656 C 41.011719 19.230469 41.621094 19.269531 42.21875 19.464844 C 42.457031 19.359375 42.585938 19.230469 42.8125 19.117188 C 43.191406 18.960938 43.578125 18.9375 43.972656 19.042969 C 43.78125 19.113281 43.59375 19.195312 43.410156 19.273438 C 44.09375 19.324219 44.261719 19.28125 44.429688 19.191406 C 44.59375 19.113281 44.75 19.035156 45.386719 19.191406 C 44.941406 19.054688 45.894531 19.027344 45.027344 18.820312 C 45.753906 18.800781 46.425781 18.988281 47.039062 19.382812 C 47.222656 19.425781 47.117188 19.316406 47.191406 19.246094 C 46.546875 18.714844 45.972656 18.9375 45.390625 18.515625 C 45.179688 18.574219 44.972656 18.625 44.769531 18.6875 C 44.046875 18.464844 43.984375 18.207031 44.480469 18.164062 C 44.285156 18.164062 44.09375 18.136719 43.90625 18.085938 C 43.832031 17.609375 44.820312 18.367188 45.152344 18.058594 C 44.964844 18.027344 44.78125 18.003906 44.59375 17.988281 C 44.390625 17.648438 45.964844 17.953125 46.644531 18.261719 C 47.386719 18.671875 47.984375 19.128906 47.90625 19.332031 C 47.59375 19.164062 47.273438 19.027344 46.941406 18.914062 C 47.363281 19.273438 48.167969 19.445312 48.59375 19.890625 C 48.605469 19.949219 48.628906 20.003906 48.664062 20.054688 C 48.652344 20.027344 48.65625 20.003906 48.671875 19.980469 C 48.75 20.070312 48.796875 20.171875 48.824219 20.285156 C 49.003906 20.511719 49.164062 20.753906 49.304688 21.007812 C 49.445312 21.261719 49.519531 21.535156 49.535156 21.824219 L 49.710938 21.734375 L 49.59375 21.6875 C 49.535156 21.214844 49.332031 20.570312 49.625 20.851562 C 49.851562 21.203125 49.914062 21.582031 49.816406 21.988281 Z M 49.816406 21.988281 "/></g><path style=" stroke:none;fill-rule:nonzero;fill:#ffbd25;fill-opacity:1;" d="M 25.949219 11.289062 C 25.9375 11.320312 25.929688 11.351562 25.921875 11.382812 C 25.941406 11.355469 25.949219 11.324219 25.949219 11.289062 Z M 25.949219 11.289062 "/><path style=" stroke:none;fill-rule:nonzero;fill:#ffbd25;fill-opacity:1;" d="M 40.019531 19.28125 C 39.929688 19.296875 39.84375 19.320312 39.757812 19.347656 C 39.867188 19.320312 39.949219 19.300781 40.019531 19.28125 Z M 40.019531 19.28125 "/><path style=" stroke:none;fill-rule:nonzero;fill:#ffbd25;fill-opacity:1;" d="M 28.066406 60.859375 C 28.410156 60.855469 28.851562 60.957031 28.757812 60.824219 C 28.582031 60.753906 27.867188 60.734375 28.066406 60.859375 Z M 28.066406 60.859375 "/><path style=" stroke:none;fill-rule:nonzero;fill:#ffbd25;fill-opacity:1;" d="M 27.835938 28.527344 C 28.183594 28.148438 28.316406 27.878906 28.09375 27.882812 C 27.765625 28.351562 28.03125 28.160156 27.835938 28.527344 Z M 27.835938 28.527344 "/><path style=" stroke:none;fill-rule:nonzero;fill:#ffbd25;fill-opacity:1;" d="M 28.570312 27.335938 L 28.882812 27.15625 C 28.738281 27.214844 28.597656 27.273438 28.457031 27.335938 Z M 28.570312 27.335938 "/><path style=" stroke:none;fill-rule:nonzero;fill:#ffbd25;fill-opacity:1;" d="M 30.828125 25.078125 C 30.945312 24.917969 31.042969 24.78125 30.917969 24.875 C 30.902344 24.949219 30.875 25.015625 30.828125 25.078125 Z M 30.828125 25.078125 "/><path style=" stroke:none;fill-rule:nonzero;fill:#ffbd25;fill-opacity:1;" d="M 30.617188 25.371094 C 30.644531 25.324219 30.710938 25.238281 30.769531 25.15625 C 30.710938 25.226562 30.632812 25.289062 30.574219 25.277344 Z M 30.617188 25.371094 "/><path style=" stroke:none;fill-rule:nonzero;fill:#ffbd25;fill-opacity:1;" d="M 31.386719 24.671875 C 31.484375 24.507812 31.574219 24.339844 31.671875 24.179688 C 31.453125 24.257812 31.238281 24.351562 31.015625 24.441406 C 30.621094 25.011719 31.667969 23.996094 31.386719 24.671875 Z M 31.386719 24.671875 "/><path style=" stroke:none;fill-rule:nonzero;fill:#ffbd25;fill-opacity:1;" d="M 34.816406 21.167969 C 34.703125 21.40625 34.621094 21.625 33.875 22.011719 C 34.652344 21.726562 33.511719 22.445312 33.351562 22.671875 C 33.882812 22.382812 34.390625 21.539062 34.863281 21.636719 C 35.566406 21.132812 35.421875 21.066406 35.300781 20.988281 C 35.179688 20.914062 35.078125 20.816406 35.964844 20.304688 C 35.058594 20.660156 34.925781 20.933594 34.816406 21.167969 Z M 34.816406 21.167969 "/><path style=" stroke:none;fill-rule:nonzero;fill:#ffbd25;fill-opacity:1;" d="M 33.589844 21.925781 C 33.390625 22.042969 32.929688 22.09375 32.789062 22.433594 C 32.804688 22.613281 33.445312 22.148438 33.589844 21.925781 Z M 33.589844 21.925781 "/><path style=" stroke:none;fill-rule:nonzero;fill:#ffbd25;fill-opacity:1;" d="M 36.691406 20.683594 L 36.777344 20.535156 L 36.160156 20.792969 Z M 36.691406 20.683594 "/><path style=" stroke:none;fill-rule:nonzero;fill:#ffbd25;fill-opacity:1;" d="M 37.617188 20.441406 C 37.746094 20.304688 38.472656 20.085938 38.035156 20.097656 C 37.894531 20.214844 37.75 20.316406 37.617188 20.441406 Z M 37.617188 20.441406 "/><path style=" stroke:none;fill-rule:nonzero;fill:#ffbd25;fill-opacity:1;" d="M 40.597656 19.429688 C 40.675781 19.421875 40.75 19.410156 40.828125 19.410156 C 40.78125 19.484375 41.324219 19.574219 40.734375 19.679688 C 41.195312 19.691406 41.582031 19.214844 40.597656 19.429688 Z M 40.597656 19.429688 "/><path style=" stroke:none;fill-rule:nonzero;fill:#ffbd25;fill-opacity:1;" d="M 46.847656 19.769531 C 46.585938 19.625 46.21875 19.546875 46.25 19.652344 C 46.515625 19.722656 46.773438 19.808594 47.027344 19.914062 C 46.972656 19.863281 46.910156 19.816406 46.847656 19.769531 Z M 46.847656 19.769531 "/><path style=" stroke:none;fill-rule:nonzero;fill:#ffbd25;fill-opacity:1;" d="M 45.722656 18.191406 C 46.425781 18.445312 46.335938 18.4375 47.183594 18.777344 C 46.988281 18.394531 46.328125 18.429688 45.722656 18.191406 Z M 45.722656 18.191406 "/><path style=" stroke:none;fill-rule:nonzero;fill:#ffbd25;fill-opacity:1;" d="M 47.394531 20.535156 C 47.1875 20.507812 46.976562 20.292969 46.816406 20.1875 C 46.835938 20.359375 47.253906 20.578125 47.394531 20.535156 Z M 47.394531 20.535156 "/><path style=" stroke:none;fill-rule:nonzero;fill:#ffbd25;fill-opacity:1;" d="M 48.140625 20.921875 C 47.902344 20.851562 47.660156 20.816406 47.414062 20.804688 C 47.507812 20.953125 47.644531 21.027344 47.816406 21.035156 C 47.933594 21.042969 48.046875 21.039062 48.128906 21.199219 C 48.132812 21.40625 47.984375 21.238281 47.988281 21.386719 C 48.027344 21.730469 48.121094 22.058594 48.261719 22.371094 C 48.367188 22.253906 48.652344 22.039062 48.796875 22.246094 C 48.742188 21.921875 48.589844 21.652344 48.347656 21.433594 C 48.164062 21.308594 48.09375 21.136719 48.140625 20.921875 Z M 48.140625 20.921875 "/><path style=" stroke:none;fill-rule:nonzero;fill:#ffbd25;fill-opacity:1;" d="M 48.398438 20.054688 C 48.53125 19.707031 47.75 19.5625 47.484375 19.449219 C 47.605469 19.582031 47.722656 19.71875 47.832031 19.863281 C 47.839844 19.683594 48.167969 19.898438 48.398438 20.054688 Z M 48.398438 20.054688 "/><path style=" stroke:none;fill-rule:nonzero;fill:#ffbd25;fill-opacity:1;" d="M 47.332031 27.019531 L 47.523438 26.675781 C 47.613281 26.417969 47.683594 26.15625 47.742188 25.890625 L 47.566406 26.464844 Z M 47.332031 27.019531 "/><path style=" stroke:none;fill-rule:nonzero;fill:#ffbd25;fill-opacity:1;" d="M 47.257812 26.546875 L 47.011719 27.4375 L 47.359375 26.558594 Z M 47.257812 26.546875 "/><path style=" stroke:none;fill-rule:nonzero;fill:#ffbd25;fill-opacity:1;" d="M 46.703125 27.621094 L 46.78125 27.503906 L 47.015625 26.84375 Z M 46.703125 27.621094 "/><path style=" stroke:none;fill-rule:nonzero;fill:#ffbd25;fill-opacity:1;" d="M 45.375 29.703125 C 45.457031 29.667969 45.542969 29.640625 45.617188 29.605469 C 45.746094 29.328125 46.195312 28.894531 46.003906 28.84375 C 45.914062 29.097656 45.585938 29.632812 45.375 29.703125 Z M 45.375 29.703125 "/><path style=" stroke:none;fill-rule:nonzero;fill:#ffbd25;fill-opacity:1;" d="M 41.335938 38.167969 L 41.140625 38.585938 C 41.25 38.480469 41.378906 38.402344 41.523438 38.355469 C 41.675781 38.140625 41.507812 38.15625 41.335938 38.167969 Z M 41.335938 38.167969 "/><path style=" stroke:none;fill-rule:nonzero;fill:#ffbd25;fill-opacity:1;" d="M 40.46875 38.683594 C 40.25 38.859375 40.015625 39 39.757812 39.113281 L 39.925781 38.914062 L 39.175781 39.648438 C 39.867188 39.261719 40.5 38.796875 41.078125 38.257812 C 40.855469 38.371094 40.652344 38.511719 40.46875 38.683594 Z M 40.46875 38.683594 "/><path style=" stroke:none;fill-rule:nonzero;fill:#ffbd25;fill-opacity:1;" d="M 35.742188 2.90625 C 35.746094 2.902344 35.742188 2.902344 35.746094 2.894531 C 35.730469 2.90625 35.734375 2.90625 35.742188 2.90625 Z M 35.742188 2.90625 "/><path style=" stroke:none;fill-rule:nonzero;fill:#ffbd25;fill-opacity:1;" d="M 36.019531 3.011719 C 36.542969 2.625 35.824219 2.902344 35.742188 2.90625 C 35.707031 3.019531 35.863281 3.019531 36.019531 3.011719 Z M 36.019531 3.011719 "/><path style=" stroke:none;fill-rule:nonzero;fill:#ffbd25;fill-opacity:1;" d="M 24.351562 62.132812 C 24.332031 61.976562 24.453125 61.902344 24.5 61.761719 C 24.269531 61.40625 24.414062 62.425781 24.230469 61.925781 C 24.21875 62.050781 24.230469 62.175781 24.265625 62.296875 L 24.542969 62.121094 C 24.476562 61.832031 24.433594 62.300781 24.351562 62.132812 Z M 24.351562 62.132812 "/><path style=" stroke:none;fill-rule:nonzero;fill:#ffbd25;fill-opacity:1;" d="M 41.402344 59.398438 C 41.355469 59.457031 41.308594 59.515625 41.269531 59.566406 C 41.335938 59.527344 41.378906 59.472656 41.402344 59.398438 Z M 41.402344 59.398438 "/><path style=" stroke:none;fill-rule:nonzero;fill:#ffbd25;fill-opacity:1;" d="M 45.824219 42.648438 C 45.878906 42.679688 45.933594 42.703125 45.992188 42.722656 L 46.105469 42.742188 C 46.011719 42.703125 45.917969 42.675781 45.824219 42.648438 Z M 45.824219 42.648438 "/><path style=" stroke:none;fill-rule:nonzero;fill:#ffbd25;fill-opacity:1;" d="M 37.3125 48.902344 C 37.222656 48.601562 37.257812 48.972656 36.980469 48.972656 L 36.914062 49.21875 C 37.0625 49.132812 37.195312 49.027344 37.3125 48.902344 Z M 37.3125 48.902344 "/><path style=" stroke:none;fill-rule:nonzero;fill:#ffbd25;fill-opacity:1;" d="M 24.242188 62.3125 C 24.25 62.3125 24.261719 62.3125 24.269531 62.316406 L 24.265625 62.296875 Z M 24.242188 62.3125 "/><path style=" stroke:none;fill-rule:nonzero;fill:#ffbd25;fill-opacity:1;" d="M 50.171875 49.835938 C 50.070312 50.113281 50.226562 50 50.199219 50.222656 C 50.355469 49.992188 50.363281 49.824219 50.171875 49.835938 Z M 50.171875 49.835938 "/><path style=" stroke:none;fill-rule:nonzero;fill:#ffbd25;fill-opacity:1;" d="M 50.339844 49.488281 L 50.523438 49.359375 L 50.246094 49.496094 Z M 50.339844 49.488281 "/><path style=" stroke:none;fill-rule:nonzero;fill:#ffbd25;fill-opacity:1;" d="M 50.878906 47.621094 C 50.914062 47.660156 50.9375 47.703125 50.945312 47.753906 C 50.929688 47.632812 50.910156 47.527344 50.878906 47.621094 Z M 50.878906 47.621094 "/><path style=" stroke:none;fill-rule:nonzero;fill:#ffbd25;fill-opacity:1;" d="M 50.882812 47.949219 L 50.972656 47.980469 C 50.964844 47.925781 50.957031 47.871094 50.953125 47.816406 C 50.964844 47.878906 50.941406 47.921875 50.882812 47.949219 Z M 50.882812 47.949219 "/><path style=" stroke:none;fill-rule:nonzero;fill:#ffbd25;fill-opacity:1;" d="M 50.652344 47.382812 C 50.773438 47.804688 50.800781 46.910156 51.078125 47.328125 L 50.917969 46.976562 C 50.828125 47.117188 50.75 47.257812 50.652344 47.382812 Z M 50.652344 47.382812 "/><path style=" stroke:none;fill-rule:nonzero;fill:#ffbd25;fill-opacity:1;" d="M 50.597656 45.519531 C 50.566406 45.066406 49.921875 44.722656 50.074219 44.371094 C 49.6875 43.902344 49.601562 44.066406 49.53125 44.167969 C 49.445312 44.289062 49.382812 44.339844 48.945312 43.933594 C 49.253906 44.40625 49.4375 44.449219 49.644531 44.480469 C 49.828125 44.519531 50.0625 44.546875 50.195312 45.089844 C 50.160156 44.519531 50.492188 45.355469 50.597656 45.519531 Z M 50.597656 45.519531 "/><path style=" stroke:none;fill-rule:nonzero;fill:#ffbd25;fill-opacity:1;" d="M 50.140625 45.847656 C 50.3125 45.871094 50.183594 45.386719 50.023438 45.285156 C 50.066406 45.429688 49.917969 45.71875 50.140625 45.847656 Z M 50.140625 45.847656 "/><path style=" stroke:none;fill-rule:nonzero;fill:#ffbd25;fill-opacity:1;" d="M 49.054688 43.265625 C 49.160156 43.371094 49.257812 43.480469 49.351562 43.597656 C 49.304688 43.480469 49.25 43.367188 49.191406 43.257812 Z M 49.054688 43.265625 "/><path style=" stroke:none;fill-rule:nonzero;fill:#ffbd25;fill-opacity:1;" d="M 48.394531 42.6875 C 48.523438 42.695312 48.652344 42.714844 48.78125 42.738281 C 48.648438 42.714844 48.234375 42.429688 48.394531 42.6875 Z M 48.394531 42.6875 "/><path style=" stroke:none;fill-rule:nonzero;fill:#ffbd25;fill-opacity:1;" d="M 46.898438 41.703125 C 46.617188 41.546875 46.253906 41.882812 46.871094 41.980469 L 46.738281 41.917969 C 46.796875 41.867188 46.511719 41.613281 46.898438 41.703125 Z M 46.898438 41.703125 "/><path style=" stroke:none;fill-rule:nonzero;fill:#ffbd25;fill-opacity:1;" d="M 43.4375 41.949219 C 43.269531 42.003906 43.117188 42.066406 42.957031 42.128906 L 43.105469 42.144531 C 43.28125 42.117188 43.484375 42.027344 43.4375 41.949219 Z M 43.4375 41.949219 "/><path style=" stroke:none;fill-rule:nonzero;fill:#ffbd25;fill-opacity:1;" d="M 42.460938 41.921875 C 42.566406 41.785156 42.792969 41.796875 42.921875 41.785156 C 42.828125 41.652344 42.488281 41.777344 42.460938 41.921875 Z M 42.460938 41.921875 "/><path style=" stroke:none;fill-rule:nonzero;fill:#ffbd25;fill-opacity:1;" d="M 41.953125 42.34375 C 42.046875 42.148438 42.152344 41.960938 42.265625 41.769531 C 41.796875 41.832031 42.027344 42.175781 41.726562 42.25 C 41.535156 42.207031 41.710938 42.101562 41.570312 42.078125 C 41.226562 42.066406 40.953125 42.199219 40.75 42.46875 C 40.878906 42.527344 41.109375 42.757812 41.039062 42.929688 C 41.472656 42.632812 41.574219 42.082031 41.953125 42.34375 Z M 41.953125 42.34375 "/><path style=" stroke:none;fill-rule:nonzero;fill:#ffbd25;fill-opacity:1;" d="M 39.222656 43.746094 L 38.792969 44.117188 L 38.953125 44.03125 Z M 39.222656 43.746094 "/><path style=" stroke:none;fill-rule:nonzero;fill:#ffbd25;fill-opacity:1;" d="M 38.796875 43.78125 L 38.535156 44.167969 L 38.859375 43.851562 Z M 38.796875 43.78125 "/><path style=" stroke:none;fill-rule:nonzero;fill:#ffbd25;fill-opacity:1;" d="M 38.371094 44.0625 L 38.597656 43.808594 L 38.308594 44.085938 Z M 38.371094 44.0625 "/><path style=" stroke:none;fill-rule:nonzero;fill:#ffbd25;fill-opacity:1;" d="M 37.335938 44.695312 L 37.496094 44.75 C 37.585938 44.640625 37.902344 44.609375 37.773438 44.46875 C 37.671875 44.628906 37.523438 44.707031 37.335938 44.695312 Z M 37.335938 44.695312 "/><path style=" stroke:none;fill-rule:nonzero;fill:#ffbd25;fill-opacity:1;" d="M 36.542969 49.726562 C 36.558594 49.597656 36.464844 49.570312 36.367188 49.539062 L 36.402344 49.816406 C 36.425781 49.78125 36.480469 49.707031 36.542969 49.726562 Z M 36.542969 49.726562 "/><path style=" stroke:none;fill-rule:nonzero;fill:#ffbd25;fill-opacity:1;" d="M 36.246094 49.546875 C 36.066406 49.582031 36.007812 49.875 35.804688 49.949219 L 35.816406 49.816406 L 35.695312 50.269531 C 36.058594 50.023438 35.972656 49.820312 36.246094 49.546875 Z M 36.246094 49.546875 "/><path style=" stroke:none;fill-rule:nonzero;fill:#ffbd25;fill-opacity:1;" d="M 30.191406 73.289062 C 30.101562 73.328125 30.113281 73.429688 30.121094 73.535156 C 30.449219 73.640625 30.125 73.269531 30.191406 73.289062 Z M 30.191406 73.289062 "/></g></svg>