<svg xmlns="http://www.w3.org/2000/svg" xmlns:xlink="http://www.w3.org/1999/xlink" width="200" zoomAndPan="magnify" viewBox="0 0 150 149.999998" height="200" preserveAspectRatio="xMidYMid meet" version="1.2"><defs><clipPath id="006ca0eeb6"><path d="M 5 8 L 141 8 L 141 147 L 5 147 Z M 5 8 "/></clipPath><clipPath id="f8af13ddf4"><path d="M -25.542969 58.546875 L 100.324219 -18.832031 L 168.277344 91.699219 L 42.414062 169.078125 Z M -25.542969 58.546875 "/></clipPath><clipPath id="0f2eced8f7"><path d="M -25.542969 58.546875 L 100.324219 -18.832031 L 168.277344 91.699219 L 42.414062 169.078125 Z M -25.542969 58.546875 "/></clipPath><clipPath id="20fe4c377c"><path d="M 9 8.269531 L 149 8.269531 L 149 136.519531 L 9 136.519531 Z M 9 8.269531 "/></clipPath></defs><g id="ce7854960e"><rect x="0" width="150" y="0" height="149.999998" style="fill:#ffffff;fill-opacity:1;stroke:none;"/><rect x="0" width="150" y="0" height="149.999998" style="fill:#ffffff;fill-opacity:1;stroke:none;"/><g clip-rule="nonzero" clip-path="url(#006ca0eeb6)"><g clip-rule="nonzero" clip-path="url(#f8af13ddf4)"><g clip-rule="nonzero" clip-path="url(#0f2eced8f7)"><path style=" stroke:none;fill-rule:nonzero;fill:#5271ff;fill-opacity:1;" d="M 28.425781 25.484375 C 22.816406 29.085938 17.011719 37.042969 11.925781 48.097656 C 8.847656 54.792969 7.804688 58.667969 6.519531 68.152344 C 4.742188 81.265625 4.949219 92.332031 7.144531 101.707031 C 10.929688 117.859375 19.148438 129.242188 33.421875 138.097656 C 41.910156 143.363281 51.625 146.207031 62.109375 146.5 C 70.660156 146.734375 77.289062 145.3125 85.773438 141.421875 C 89.664062 139.636719 97.277344 134.949219 101.261719 131.882812 C 113.96875 122.105469 126.945312 106.882812 133.582031 93.960938 C 138.660156 84.070312 141.671875 70.203125 140.832031 60.546875 C 139.46875 44.835938 127.953125 30.304688 109.242188 20.691406 C 96.964844 14.386719 89.683594 11.230469 84.078125 9.789062 C 76.304688 7.789062 70.386719 7.753906 62.351562 9.65625 C 57.886719 10.714844 50.242188 13.386719 46.089844 15.335938 C 43.757812 16.433594 32.007812 23.183594 28.425781 25.484375 Z M 28.425781 25.484375 "/></g></g></g><g clip-rule="nonzero" clip-path="url(#20fe4c377c)"><path style=" stroke:none;fill-rule:nonzero;fill:#38b6ff;fill-opacity:1;" d="M 77.917969 8.285156 C 76.765625 8.265625 75.648438 8.289062 74.554688 8.359375 C 72.566406 8.488281 70.066406 8.621094 68.992188 8.660156 C 67.058594 8.730469 62.308594 9.910156 55.484375 12.015625 C 51.671875 13.195312 45.742188 15.722656 42.347656 17.621094 C 30.027344 24.511719 16.277344 42.785156 11.804688 58.210938 C 8.988281 67.933594 8.5 79.125 10.488281 88.332031 C 12.46875 97.480469 16.558594 104.855469 23.808594 112.347656 C 31.933594 120.738281 40.71875 126.796875 51.03125 131.117188 C 57.34375 133.761719 62.300781 135.113281 68.691406 135.933594 C 72.597656 136.433594 82.035156 136.515625 85.652344 136.078125 C 95.734375 134.859375 110.328125 128.972656 119.691406 122.351562 C 130.71875 114.554688 136.5 107.757812 142.71875 95.285156 C 147.171875 86.351562 149.621094 75.042969 148.863281 66.894531 C 148.015625 57.820312 146.171875 52.714844 141.128906 45.503906 C 136.398438 38.738281 132.660156 34.484375 127.691406 30.203125 C 120.144531 23.710938 114.066406 19.675781 105.019531 15.15625 C 98.269531 11.789062 95.945312 10.960938 89.800781 9.734375 C 85.160156 8.8125 81.371094 8.34375 77.917969 8.285156 Z M 77.917969 8.285156 "/></g></g></svg>