<svg xmlns="http://www.w3.org/2000/svg" xmlns:xlink="http://www.w3.org/1999/xlink" width="200" zoomAndPan="magnify" viewBox="0 0 150 149.999998" height="200" preserveAspectRatio="xMidYMid meet" version="1.2"><defs><clipPath id="96415fd46d"><path d="M 9 10 L 149 10 L 149 141 L 9 141 Z M 9 10 "/></clipPath><clipPath id="9277191f49"><path d="M 98.53125 170.414062 L -22.609375 85.824219 L 51.675781 -20.554688 L 172.816406 64.03125 Z M 98.53125 170.414062 "/></clipPath><clipPath id="4a81d79892"><path d="M 98.53125 170.414062 L -22.609375 85.824219 L 51.675781 -20.554688 L 172.816406 64.03125 Z M 98.53125 170.414062 "/></clipPath><clipPath id="95a4f97368"><path d="M 98.53125 170.414062 L -22.609375 85.824219 L 51.675781 -20.554688 L 172.816406 64.03125 Z M 98.53125 170.414062 "/></clipPath><clipPath id="95358b6584"><path d="M 2.136719 15 L 143 15 L 143 143.25 L 2.136719 143.25 Z M 2.136719 15 "/></clipPath></defs><g id="67f00d6c68"><g clip-rule="nonzero" clip-path="url(#96415fd46d)"><g clip-rule="nonzero" clip-path="url(#9277191f49)"><g clip-rule="nonzero" clip-path="url(#4a81d79892)"><g clip-rule="nonzero" clip-path="url(#95a4f97368)"><path style=" stroke:none;fill-rule:nonzero;fill:#ffb84c;fill-opacity:1;" d="M 46.699219 134.101562 C 52.234375 137.808594 61.851562 139.953125 74.027344 140.195312 C 81.402344 140.339844 85.375 139.75 94.597656 137.132812 C 107.34375 133.515625 117.425781 128.894531 125.160156 123.125 C 138.488281 113.183594 145.671875 101.082031 148.125 84.429688 C 149.582031 74.527344 148.328125 64.46875 144.421875 54.726562 C 141.238281 46.78125 137.292969 41.265625 130.34375 35.03125 C 127.15625 32.171875 119.824219 27.0625 115.421875 24.628906 C 101.390625 16.875 82.246094 11.058594 67.738281 10.136719 C 56.632812 9.433594 42.703125 12.21875 34.171875 16.855469 C 20.285156 24.394531 11.523438 40.789062 10.140625 61.816406 C 9.234375 75.613281 9.234375 83.558594 10.140625 89.285156 C 11.398438 97.222656 13.71875 102.667969 18.664062 109.285156 C 21.410156 112.960938 26.90625 118.914062 30.351562 121.941406 C 32.285156 123.644531 43.15625 131.730469 46.695312 134.101562 Z M 46.699219 134.101562 "/></g></g></g></g><g clip-rule="nonzero" clip-path="url(#95358b6584)"><path style=" stroke:none;fill-rule:nonzero;fill:#ffde59;fill-opacity:1;" d="M 71.5625 15.015625 C 70.410156 14.996094 69.292969 15.023438 68.199219 15.089844 C 66.210938 15.21875 63.710938 15.351562 62.636719 15.390625 C 60.703125 15.460938 55.953125 16.640625 49.128906 18.746094 C 45.316406 19.925781 39.386719 22.453125 35.992188 24.351562 C 23.671875 31.242188 9.921875 49.515625 5.449219 64.941406 C 2.632812 74.664062 2.144531 85.855469 4.132812 95.0625 C 6.113281 104.210938 10.203125 111.585938 17.453125 119.078125 C 25.578125 127.46875 34.363281 133.527344 44.675781 137.851562 C 50.988281 140.492188 55.945312 141.84375 62.335938 142.664062 C 66.242188 143.167969 75.679688 143.246094 79.296875 142.808594 C 89.378906 141.589844 103.972656 135.707031 113.335938 129.082031 C 124.363281 121.285156 130.144531 114.488281 136.363281 102.015625 C 140.816406 93.082031 143.265625 81.773438 142.507812 73.625 C 141.660156 64.550781 139.816406 59.449219 134.773438 52.234375 C 130.042969 45.46875 126.304688 41.214844 121.335938 36.933594 C 113.789062 30.441406 107.710938 26.40625 98.664062 21.886719 C 91.914062 18.519531 89.589844 17.691406 83.445312 16.464844 C 78.804688 15.542969 75.015625 15.074219 71.5625 15.015625 Z M 71.5625 15.015625 "/></g></g></svg>