<svg xmlns="http://www.w3.org/2000/svg" xmlns:xlink="http://www.w3.org/1999/xlink" width="200" zoomAndPan="magnify" viewBox="0 0 150 149.999998" height="200" preserveAspectRatio="xMidYMid meet" version="1.2"><defs><clipPath id="a27d185f1d"><path d="M 4 8 L 145 8 L 145 141 L 4 141 Z M 4 8 "/></clipPath><clipPath id="1ae4f168b1"><path d="M 77.828125 173.058594 L -26.648438 68.585938 L 65.097656 -23.164062 L 169.574219 81.3125 Z M 77.828125 173.058594 "/></clipPath><clipPath id="9a70be46a0"><path d="M 77.828125 173.058594 L -26.648438 68.585938 L 65.097656 -23.164062 L 169.574219 81.3125 Z M 77.828125 173.058594 "/></clipPath><clipPath id="b1720bce81"><path d="M 0 4.007812 L 141 4.007812 L 141 132.257812 L 0 132.257812 Z M 0 4.007812 "/></clipPath></defs><g id="d1af8ac4b9"><g clip-rule="nonzero" clip-path="url(#a27d185f1d)"><g clip-rule="nonzero" clip-path="url(#1ae4f168b1)"><g clip-rule="nonzero" clip-path="url(#9a70be46a0)"><path style=" stroke:none;fill-rule:nonzero;fill:#ff3131;fill-opacity:1;" d="M 33.144531 128.238281 C 37.949219 132.859375 47.035156 136.65625 58.96875 139.039062 C 66.195312 140.480469 70.207031 140.597656 79.730469 139.644531 C 92.898438 138.332031 103.617188 135.5625 112.222656 131.25 C 127.058594 123.820312 136.222656 113.1875 141.523438 97.246094 C 144.675781 87.765625 145.191406 77.660156 143.039062 67.390625 C 141.285156 59.019531 138.363281 52.902344 132.609375 45.554688 C 129.96875 42.179688 123.644531 35.867188 119.738281 32.699219 C 107.277344 22.609375 89.457031 13.519531 75.351562 10.0625 C 64.550781 7.417969 50.363281 7.707031 41.167969 10.761719 C 26.199219 15.734375 14.738281 30.308594 9.730469 50.738281 C 6.445312 64.144531 5.066406 71.957031 4.964844 77.746094 C 4.820312 85.773438 6.160156 91.535156 9.875 98.910156 C 11.941406 103.007812 16.3125 109.824219 19.175781 113.410156 C 20.78125 115.425781 30.074219 125.289062 33.144531 128.238281 Z M 33.144531 128.238281 "/></g></g></g><g clip-rule="nonzero" clip-path="url(#b1720bce81)"><path style=" stroke:none;fill-rule:nonzero;fill:#ff5757;fill-opacity:1;" d="M 69.425781 4.023438 C 68.273438 4.003906 67.15625 4.03125 66.0625 4.101562 C 64.074219 4.226562 61.574219 4.363281 60.5 4.402344 C 58.566406 4.472656 53.816406 5.652344 46.992188 7.757812 C 43.179688 8.933594 37.25 11.464844 33.855469 13.363281 C 21.535156 20.253906 7.785156 38.527344 3.3125 53.949219 C 0.496094 63.675781 0.0078125 74.863281 1.996094 84.070312 C 3.976562 93.222656 8.066406 100.597656 15.316406 108.085938 C 23.441406 116.480469 32.226562 122.539062 42.539062 126.859375 C 48.851562 129.503906 53.808594 130.855469 60.199219 131.675781 C 64.105469 132.175781 73.542969 132.253906 77.160156 131.816406 C 87.242188 130.597656 101.835938 124.714844 111.199219 118.09375 C 122.226562 110.292969 128.007812 103.5 134.226562 91.027344 C 138.679688 82.09375 141.128906 70.78125 140.371094 62.632812 C 139.523438 53.558594 137.679688 48.457031 132.636719 41.246094 C 127.90625 34.476562 124.167969 30.222656 119.199219 25.945312 C 111.652344 19.449219 105.574219 15.414062 96.527344 10.898438 C 89.777344 7.527344 87.453125 6.699219 81.308594 5.476562 C 76.667969 4.550781 72.878906 4.082031 69.425781 4.023438 Z M 69.425781 4.023438 "/></g></g></svg>